{
  "source": "C:\\Users\\Peter\\Desktop\\stuff\\MIUN\\quantitative_research\\video_compression\\videos\\UVG\\Jockey_1920x1080_120fps_420_8bit_YUV.y4m",
  "output": "C:\\Users\\Peter\\Desktop\\stuff\\MIUN\\quantitative_research\\video_compression\\compressed_videos\\UVG\\av1\\1.5\\Jockey_1920x1080_120fps_420_8bit_YUV_av1.mkv",
  "codec": "av1",
  "ok": "[yuv4mpegpipe @ 000002c7969d5380] Stream #0: not enough frames to estimate rate; consider increasing probesize\nInput #0, yuv4mpegpipe, from 'C:\\Users\\Peter\\Desktop\\stuff\\MIUN\\quantitative_research\\video_compression\\videos\\UVG\\Jockey_1920x1080_120fps_420_8bit_YUV.y4m':\n  Duration: 00:00:05.00, start: 0.000000, bitrate: 2985989 kb/s\n  Stream #0:0: Video: rawvideo (I420 / 0x30323449), yuv420p(progressive), 1920x1080, 120 fps, 120 tbr, 120 tbn\n[out#0/matroska @ 000002c7969d90c0] Codec AVOption b:a (set bitrate (in bits/s)) has not been used for any stream. The most likely reason is either wrong type (e.g. a video option with no video streams) or that it is a private option of some decoder which was not actually used for any stream.\nStream mapping:\n  Stream #0:0 -> #0:0 (rawvideo (native) -> av1 (libsvtav1))\nPress [q] to stop, [?] for help\nSvt[info]: -------------------------------------------\nSvt[info]: SVT [version]:\tSVT-AV1 Encoder Lib v3.1.0-19-g6ecfe8ec\nSvt[info]: SVT [build]  :\tGCC 15.2.0\t 64 bit\nSvt[info]: LIB Build date: Aug 17 2025 11:37:13\nSvt[info]: -------------------------------------------\n[libsvtav1 @ 000002c7969dc1c0] Specified chroma sample location center is unsupported on the AV1 bit stream level. Usage of a container that allows passing this information - such as Matroska - is recommended.\nSvt[info]: Level of Parallelism: 5\nSvt[info]: Number of PPCS 93\nSvt[info]: [asm level on system : up to avx2]\nSvt[info]: [asm level selected : up to avx2]\nSvt[info]: -------------------------------------------\nSvt[info]: SVT [config]: main profile\ttier (auto)\tlevel (auto)\nSvt[info]: SVT [config]: width / height / fps numerator / fps denominator \t\t: 1920 / 1080 / 120 / 1\nSvt[info]: SVT [config]: bit-depth / color format \t\t\t\t\t: 8 / YUV420\nSvt[info]: SVT [config]: preset / tune / pred struct \t\t\t\t\t: 4 / PSNR / random access\nSvt[info]: SVT [config]: gop size / mini-gop size / key-frame type \t\t\t: 641 / 16 / key frame\nSvt[info]: SVT [config]: BRC mode / target bitrate (kbps)\t\t\t\t: VBR / 1500 \nSvt[info]: SVT [config]: AQ mode / Variance Boost \t\t\t\t\t: 2 / 0\nSvt[info]: SVT [config]: sharpness / luminance-based QP bias \t\t\t\t: 0 / 0\nSvt[info]: SVT [config]: QP scale compress strength \t\t\t\t\t: 0\nSvt[info]: -------------------------------------------\nOutput #0, matroska, to 'C:\\Users\\Peter\\Desktop\\stuff\\MIUN\\quantitative_research\\video_compression\\compressed_videos\\UVG\\av1\\1.5\\Jockey_1920x1080_120fps_420_8bit_YUV_av1.mkv':\n  Metadata:\n    encoder         : Lavf62.3.100\n  Stream #0:0: Video: av1 (AV01 / 0x31305641), yuv420p(tv, progressive), 1920x1080, q=2-31, 1500 kb/s, 120 fps, 1k tbn\n    Metadata:\n      encoder         : Lavc62.11.100 libsvtav1\n    Side data:\n      cpb: bitrate max/min/avg: 0/0/1500000 buffer size: 1500000 vbv_delay: N/A\nframe=    0 fps=0.0 q=0.0 size=       0KiB time=N/A bitrate=N/A speed=N/A elapsed=0:00:02.22    \nframe=    0 fps=0.0 q=0.0 size=       0KiB time=N/A bitrate=N/A speed=N/A elapsed=0:00:03.48    \nframe=    0 fps=0.0 q=0.0 size=       0KiB time=N/A bitrate=N/A speed=N/A elapsed=0:00:04.05    \nframe=    0 fps=0.0 q=0.0 size=       0KiB time=N/A bitrate=N/A speed=N/A elapsed=0:00:04.62    \nframe=    0 fps=0.0 q=0.0 size=       0KiB time=N/A bitrate=N/A speed=N/A elapsed=0:00:05.19    \nframe=    0 fps=0.0 q=0.0 size=       0KiB time=N/A bitrate=N/A speed=N/A elapsed=0:00:05.79    \nframe=    0 fps=0.0 q=0.0 size=       0KiB time=N/A bitrate=N/A speed=N/A elapsed=0:00:06.37    \nframe=    0 fps=0.0 q=0.0 size=       0KiB time=N/A bitrate=N/A speed=N/A elapsed=0:00:06.93    \nframe=    0 fps=0.0 q=0.0 size=       0KiB time=N/A bitrate=N/A speed=N/A elapsed=0:00:07.50    \nframe=    0 fps=0.0 q=0.0 size=       0KiB time=N/A bitrate=N/A speed=N/A elapsed=0:00:08.08    \nframe=    0 fps=0.0 q=0.0 size=       0KiB time=N/A bitrate=N/A speed=N/A elapsed=0:00:08.67    \nframe=    0 fps=0.0 q=0.0 size=       0KiB time=N/A bitrate=N/A speed=N/A elapsed=0:00:09.31    \nframe=    0 fps=0.0 q=0.0 size=       0KiB time=N/A bitrate=N/A speed=N/A elapsed=0:00:09.92    \nframe=    0 fps=0.0 q=0.0 size=       0KiB time=N/A bitrate=N/A speed=N/A elapsed=0:00:10.52    \nframe=    0 fps=0.0 q=0.0 size=       0KiB time=N/A bitrate=N/A speed=N/A elapsed=0:00:11.12    \nframe=    0 fps=0.0 q=0.0 size=       0KiB time=N/A bitrate=N/A speed=N/A elapsed=0:00:11.73    \nframe=    0 fps=0.0 q=0.0 size=       0KiB time=N/A bitrate=N/A speed=N/A elapsed=0:00:12.33    \nframe=    0 fps=0.0 q=0.0 size=       0KiB time=N/A bitrate=N/A speed=N/A elapsed=0:00:12.90    \nframe=    0 fps=0.0 q=0.0 size=       0KiB time=N/A bitrate=N/A speed=N/A elapsed=0:00:13.50    \nframe=    0 fps=0.0 q=0.0 size=       0KiB time=N/A bitrate=N/A speed=N/A elapsed=0:00:14.10    \nframe=    0 fps=0.0 q=0.0 size=       0KiB time=N/A bitrate=N/A speed=N/A elapsed=0:00:14.69    \nframe=    0 fps=0.0 q=0.0 size=       0KiB time=N/A bitrate=N/A speed=N/A elapsed=0:00:15.24    \nframe=    0 fps=0.0 q=0.0 size=       0KiB time=N/A bitrate=N/A speed=N/A elapsed=0:00:15.83    \nframe=    0 fps=0.0 q=0.0 size=       0KiB time=N/A bitrate=N/A speed=N/A elapsed=0:00:16.40    \nframe=    0 fps=0.0 q=0.0 size=       0KiB time=N/A bitrate=N/A speed=N/A elapsed=0:00:16.99    \nframe=    0 fps=0.0 q=0.0 size=       0KiB time=N/A bitrate=N/A speed=N/A elapsed=0:00:17.56    \nframe=    0 fps=0.0 q=0.0 size=       0KiB time=N/A bitrate=N/A speed=N/A elapsed=0:00:18.15    \nframe=    0 fps=0.0 q=0.0 size=       0KiB time=N/A bitrate=N/A speed=N/A elapsed=0:00:18.71    \nframe=    1 fps=0.1 q=30.0 size=       1KiB time=00:00:00.00 bitrate=N/A speed=   0x elapsed=0:00:19.27    \nframe=    1 fps=0.1 q=30.0 size=       1KiB time=00:00:00.00 bitrate=N/A speed=   0x elapsed=0:00:19.85    \nframe=    1 fps=0.0 q=30.0 size=       1KiB time=00:00:00.00 bitrate=N/A speed=   0x elapsed=0:00:20.43    \nframe=    1 fps=0.0 q=30.0 size=       1KiB time=00:00:00.00 bitrate=N/A speed=   0x elapsed=0:00:21.03    \nframe=    1 fps=0.0 q=30.0 size=       1KiB time=00:00:00.00 bitrate=N/A speed=   0x elapsed=0:00:21.61    \nframe=    1 fps=0.0 q=30.0 size=       1KiB time=00:00:00.00 bitrate=N/A speed=   0x elapsed=0:00:22.17    \nframe=    1 fps=0.0 q=30.0 size=       1KiB time=00:00:00.00 bitrate=N/A speed=   0x elapsed=0:00:22.75    \nframe=    1 fps=0.0 q=30.0 size=       1KiB time=00:00:00.00 bitrate=N/A speed=   0x elapsed=0:00:23.34    \nframe=    1 fps=0.0 q=30.0 size=       1KiB time=00:00:00.00 bitrate=N/A speed=   0x elapsed=0:00:23.93    \nframe=    1 fps=0.0 q=30.0 size=       1KiB time=00:00:00.00 bitrate=N/A speed=   0x elapsed=0:00:24.52    \nframe=    1 fps=0.0 q=30.0 size=       1KiB time=00:00:00.00 bitrate=N/A speed=   0x elapsed=0:00:25.08    \nframe=    3 fps=0.1 q=55.0 size=       1KiB time=00:00:00.01 bitrate= 268.8kbits/s speed=0.00065x elapsed=0:00:25.65    \nframe=    3 fps=0.1 q=55.0 size=       1KiB time=00:00:00.01 bitrate= 268.8kbits/s speed=0.000636x elapsed=0:00:26.22    \nframe=    5 fps=0.2 q=53.0 size=       1KiB time=00:00:00.03 bitrate= 134.4kbits/s speed=0.00124x elapsed=0:00:26.80    \nframe=    6 fps=0.2 q=57.0 size=       1KiB time=00:00:00.04 bitrate= 107.5kbits/s speed=0.00152x elapsed=0:00:27.37    \nframe=    6 fps=0.2 q=57.0 size=       1KiB time=00:00:00.04 bitrate= 107.5kbits/s speed=0.00149x elapsed=0:00:27.96    \nframe=    8 fps=0.3 q=54.0 size=       1KiB time=00:00:00.05 bitrate=  76.8kbits/s speed=0.00204x elapsed=0:00:28.53    \nframe=    8 fps=0.3 q=54.0 size=       1KiB time=00:00:00.05 bitrate=  76.8kbits/s speed=0.002x elapsed=0:00:29.10    \nframe=    9 fps=0.3 q=50.0 size=       1KiB time=00:00:00.06 bitrate=  67.2kbits/s speed=0.00225x elapsed=0:00:29.67    \nframe=   10 fps=0.3 q=53.0 size=       1KiB time=00:00:00.07 bitrate=  59.7kbits/s speed=0.00248x elapsed=0:00:30.23    \nframe=   11 fps=0.4 q=54.0 size=       1KiB time=00:00:00.08 bitrate=  53.8kbits/s speed=0.0027x elapsed=0:00:30.81    \nframe=   12 fps=0.4 q=50.0 size=       1KiB time=00:00:00.09 bitrate=  48.9kbits/s speed=0.00292x elapsed=0:00:31.43    \nframe=   14 fps=0.4 q=52.0 size=       1KiB time=00:00:00.10 bitrate=  41.4kbits/s speed=0.00338x elapsed=0:00:32.03    \nframe=   15 fps=0.5 q=54.0 size=       1KiB time=00:00:00.11 bitrate=  38.4kbits/s speed=0.00357x elapsed=0:00:32.64    \nframe=   16 fps=0.5 q=52.0 size=       1KiB time=00:00:00.12 bitrate=  35.8kbits/s speed=0.00376x elapsed=0:00:33.24    \nframe=   17 fps=0.5 q=40.0 size=       1KiB time=00:00:00.13 bitrate=  33.6kbits/s speed=0.00394x elapsed=0:00:33.85    \nframe=   18 fps=0.5 q=51.0 size=       1KiB time=00:00:00.14 bitrate=  31.6kbits/s speed=0.00411x elapsed=0:00:34.44    \nframe=   18 fps=0.5 q=51.0 size=       1KiB time=00:00:00.14 bitrate=  31.6kbits/s speed=0.00404x elapsed=0:00:35.02    \nframe=   20 fps=0.6 q=51.0 size=       1KiB time=00:00:00.15 bitrate=  29.9kbits/s speed=0.00421x elapsed=0:00:35.60    \nframe=   21 fps=0.6 q=53.0 size=       1KiB time=00:00:00.16 bitrate=  26.9kbits/s speed=0.00461x elapsed=0:00:36.15    \nframe=   22 fps=0.6 q=50.0 size=       1KiB time=00:00:00.17 bitrate=  25.6kbits/s speed=0.00477x elapsed=0:00:36.71    \nframe=   22 fps=0.6 q=50.0 size=       1KiB time=00:00:00.17 bitrate=  25.6kbits/s speed=0.0047x elapsed=0:00:37.26    \nframe=   23 fps=0.6 q=54.0 size=       1KiB time=00:00:00.18 bitrate=  24.4kbits/s speed=0.00485x elapsed=0:00:37.80    \nframe=   23 fps=0.6 q=54.0 size=       1KiB time=00:00:00.18 bitrate=  24.4kbits/s speed=0.00478x elapsed=0:00:38.35    \nframe=   25 fps=0.6 q=50.0 size=       1KiB time=00:00:00.19 bitrate=  23.4kbits/s speed=0.00492x elapsed=0:00:38.94    \nframe=   26 fps=0.7 q=49.0 size=       1KiB time=00:00:00.20 bitrate=  21.5kbits/s speed=0.00527x elapsed=0:00:39.53    \nframe=   26 fps=0.6 q=49.0 size=       1KiB time=00:00:00.20 bitrate=  21.5kbits/s speed=0.00519x elapsed=0:00:40.11    \nframe=   27 fps=0.7 q=54.0 size=       1KiB time=00:00:00.21 bitrate=  20.7kbits/s speed=0.00532x elapsed=0:00:40.71    \nframe=   28 fps=0.7 q=50.0 size=       1KiB time=00:00:00.22 bitrate=  19.9kbits/s speed=0.00545x elapsed=0:00:41.29    \nframe=   29 fps=0.7 q=51.0 size=       1KiB time=00:00:00.22 bitrate=  19.9kbits/s speed=0.00537x elapsed=0:00:41.90    \nframe=   31 fps=0.7 q=53.0 size=       1KiB time=00:00:00.25 bitrate=  17.9kbits/s speed=0.00589x elapsed=0:00:42.47    \nframe=   32 fps=0.7 q=50.0 size=       1KiB time=00:00:00.25 bitrate=  17.3kbits/s speed=0.006x elapsed=0:00:43.03    \nframe=   33 fps=0.8 q=35.0 size=       1KiB time=00:00:00.26 bitrate=  16.8kbits/s speed=0.00612x elapsed=0:00:43.60    \nframe=   34 fps=0.8 q=49.0 size=       1KiB time=00:00:00.27 bitrate=  16.3kbits/s speed=0.00623x elapsed=0:00:44.16    \nframe=   35 fps=0.8 q=54.0 size=       1KiB time=00:00:00.28 bitrate=  15.8kbits/s speed=0.00633x elapsed=0:00:44.74    \nframe=   36 fps=0.8 q=47.0 size=       1KiB time=00:00:00.29 bitrate=  15.4kbits/s speed=0.00643x elapsed=0:00:45.32    \nframe=   37 fps=0.8 q=52.0 size=       1KiB time=00:00:00.30 bitrate=  14.9kbits/s speed=0.00654x elapsed=0:00:45.90    \nframe=   38 fps=0.8 q=49.0 size=       1KiB time=00:00:00.30 bitrate=  14.9kbits/s speed=0.00646x elapsed=0:00:46.46    \nframe=   38 fps=0.8 q=49.0 size=       1KiB time=00:00:00.30 bitrate=  14.5kbits/s speed=0.00656x elapsed=0:00:47.03    \nframe=   38 fps=0.8 q=49.0 size=       1KiB time=00:00:00.30 bitrate=  14.5kbits/s speed=0.00648x elapsed=0:00:47.59    \nframe=   39 fps=0.8 q=52.0 size=       1KiB time=00:00:00.31 bitrate=  14.1kbits/s speed=0.00657x elapsed=0:00:48.18    \nframe=   40 fps=0.8 q=49.0 size=       1KiB time=00:00:00.32 bitrate=  13.8kbits/s speed=0.00666x elapsed=0:00:48.77    \nframe=   40 fps=0.8 q=49.0 size=       1KiB time=00:00:00.32 bitrate=  13.8kbits/s speed=0.00658x elapsed=0:00:49.36    \nframe=   42 fps=0.8 q=49.0 size=       1KiB time=00:00:00.34 bitrate=  13.1kbits/s speed=0.00684x elapsed=0:00:49.93    \nframe=   43 fps=0.9 q=54.0 size=       1KiB time=00:00:00.35 bitrate=  12.8kbits/s speed=0.00693x elapsed=0:00:50.50    \nframe=   43 fps=0.8 q=54.0 size=       1KiB time=00:00:00.35 bitrate=  12.8kbits/s speed=0.00685x elapsed=0:00:51.07    \nframe=   44 fps=0.9 q=49.0 size=       1KiB time=00:00:00.35 bitrate=  12.5kbits/s speed=0.00694x elapsed=0:00:51.64    \nframe=   46 fps=0.9 q=49.0 size=       1KiB time=00:00:00.37 bitrate=  11.9kbits/s speed=0.00718x elapsed=0:00:52.22    \nframe=   47 fps=0.9 q=53.0 size=       1KiB time=00:00:00.38 bitrate=  11.7kbits/s speed=0.00726x elapsed=0:00:52.80    \nframe=   48 fps=0.9 q=50.0 size=       1KiB time=00:00:00.39 bitrate=  11.4kbits/s speed=0.00734x elapsed=0:00:53.37    \nframe=   49 fps=0.9 q=33.0 size=       1KiB time=00:00:00.40 bitrate=  11.2kbits/s speed=0.00741x elapsed=0:00:53.95    \nframe=   51 fps=0.9 q=53.0 size=       1KiB time=00:00:00.41 bitrate=  10.8kbits/s speed=0.00764x elapsed=0:00:54.53    \nframe=   51 fps=0.9 q=53.0 size=       1KiB time=00:00:00.41 bitrate=  10.8kbits/s speed=0.00756x elapsed=0:00:55.10    \nframe=   52 fps=0.9 q=49.0 size=       1KiB time=00:00:00.42 bitrate=  10.5kbits/s speed=0.00764x elapsed=0:00:55.66    \nframe=   53 fps=0.9 q=52.0 size=       1KiB time=00:00:00.43 bitrate=  10.3kbits/s speed=0.00771x elapsed=0:00:56.23    \nframe=   53 fps=0.9 q=52.0 size=       1KiB time=00:00:00.43 bitrate=  10.3kbits/s speed=0.00763x elapsed=0:00:56.80    \nframe=   54 fps=0.9 q=49.0 size=       1KiB time=00:00:00.44 bitrate=  10.1kbits/s speed=0.0077x elapsed=0:00:57.36    \nframe=   54 fps=0.9 q=49.0 size=       1KiB time=00:00:00.44 bitrate=  10.1kbits/s speed=0.00762x elapsed=0:00:57.93    \nframe=   55 fps=0.9 q=52.0 size=       1KiB time=00:00:00.45 bitrate=  10.0kbits/s speed=0.00769x elapsed=0:00:58.51    \nframe=   55 fps=0.9 q=52.0 size=       1KiB time=00:00:00.45 bitrate=  10.0kbits/s speed=0.00761x elapsed=0:00:59.13    \nframe=   55 fps=0.9 q=52.0 size=       1KiB time=00:00:00.45 bitrate=  10.0kbits/s speed=0.00753x elapsed=0:00:59.72    \nframe=   56 fps=0.9 q=49.0 size=       1KiB time=00:00:00.45 bitrate=   9.8kbits/s speed=0.0076x elapsed=0:01:00.33    \nframe=   56 fps=0.9 q=49.0 size=       1KiB time=00:00:00.45 bitrate=   9.8kbits/s speed=0.00752x elapsed=0:01:00.92    \nframe=   58 fps=0.9 q=49.0 size=       1KiB time=00:00:00.47 bitrate=   9.4kbits/s speed=0.00772x elapsed=0:01:01.52    \nframe=   59 fps=0.9 q=54.0 size=       1KiB time=00:00:00.48 bitrate=   9.3kbits/s speed=0.00778x elapsed=0:01:02.12    \nframe=   59 fps=0.9 q=54.0 size=       1KiB time=00:00:00.48 bitrate=   9.3kbits/s speed=0.00771x elapsed=0:01:02.72    \nframe=   60 fps=0.9 q=50.0 size=       1KiB time=00:00:00.49 bitrate=   9.1kbits/s speed=0.00776x elapsed=0:01:03.31    \nframe=   61 fps=1.0 q=51.0 size=       1KiB time=00:00:00.50 bitrate=   9.0kbits/s speed=0.00782x elapsed=0:01:03.93    \nframe=   63 fps=1.0 q=53.0 size=       1KiB time=00:00:00.51 bitrate=   8.7kbits/s speed=0.00801x elapsed=0:01:04.53    \nframe=   64 fps=1.0 q=49.0 size=       1KiB time=00:00:00.52 bitrate=   8.5kbits/s speed=0.00806x elapsed=0:01:05.15    \nframe=   65 fps=1.0 q=32.0 size=       1KiB time=00:00:00.53 bitrate=   8.4kbits/s speed=0.00811x elapsed=0:01:05.72    \nframe=   65 fps=1.0 q=32.0 size=       1KiB time=00:00:00.53 bitrate=   8.4kbits/s speed=0.00804x elapsed=0:01:06.29    \nframe=   66 fps=1.0 q=50.0 size=       1KiB time=00:00:00.54 bitrate=   8.3kbits/s speed=0.0081x elapsed=0:01:06.86    \nframe=   68 fps=1.0 q=50.0 size=       1KiB time=00:00:00.55 bitrate=   8.0kbits/s speed=0.00828x elapsed=0:01:07.42    \nframe=   69 fps=1.0 q=52.0 size=       1KiB time=00:00:00.55 bitrate=   8.0kbits/s speed=0.00821x elapsed=0:01:07.97    \nframe=   69 fps=1.0 q=52.0 size=       1KiB time=00:00:00.56 bitrate=   7.9kbits/s speed=0.00827x elapsed=0:01:08.53    \nframe=   70 fps=1.0 q=50.0 size=       1KiB time=00:00:00.57 bitrate=   7.8kbits/s speed=0.00832x elapsed=0:01:09.11    \nframe=   70 fps=1.0 q=50.0 size=       1KiB time=00:00:00.57 bitrate=   7.8kbits/s speed=0.00825x elapsed=0:01:09.67    \nframe=   71 fps=1.0 q=55.0 size=       1KiB time=00:00:00.58 bitrate=   7.7kbits/s speed=0.00831x elapsed=0:01:10.23    \nframe=   72 fps=1.0 q=50.0 size=       1KiB time=00:00:00.59 bitrate=   7.6kbits/s speed=0.00836x elapsed=0:01:10.79    \nframe=   72 fps=1.0 q=50.0 size=       1KiB time=00:00:00.59 bitrate=   7.6kbits/s speed=0.00829x elapsed=0:01:11.38    \nframe=   74 fps=1.0 q=50.0 size=       1KiB time=00:00:00.60 bitrate=   7.4kbits/s speed=0.00845x elapsed=0:01:11.95    \nframe=   75 fps=1.0 q=55.0 size=       1KiB time=00:00:00.61 bitrate=   7.3kbits/s speed=0.0085x elapsed=0:01:12.53    \nframe=   76 fps=1.0 q=49.0 size=       1KiB time=00:00:00.61 bitrate=   7.3kbits/s speed=0.00843x elapsed=0:01:13.10    \nframe=   77 fps=1.0 q=51.0 size=       1KiB time=00:00:00.63 bitrate=   7.1kbits/s speed=0.00859x elapsed=0:01:13.69    \nframe=   79 fps=1.1 q=53.0 size=       1KiB time=00:00:00.65 bitrate=   6.9kbits/s speed=0.00875x elapsed=0:01:14.24    \nframe=   80 fps=1.1 q=49.0 size=       1KiB time=00:00:00.65 bitrate=   6.8kbits/s speed=0.0088x elapsed=0:01:14.80    \nframe=   81 fps=1.1 q=31.0 size=       1KiB time=00:00:00.66 bitrate=   6.7kbits/s speed=0.00884x elapsed=0:01:15.38    \nframe=   82 fps=1.1 q=48.0 size=       1KiB time=00:00:00.67 bitrate=   6.6kbits/s speed=0.00889x elapsed=0:01:15.95    \nframe=   82 fps=1.1 q=48.0 size=       1KiB time=00:00:00.67 bitrate=   6.6kbits/s speed=0.00882x elapsed=0:01:16.54    \nframe=   83 fps=1.1 q=53.0 size=       1KiB time=00:00:00.68 bitrate=   6.6kbits/s speed=0.00886x elapsed=0:01:17.11    \nframe=   84 fps=1.1 q=48.0 size=       1KiB time=00:00:00.69 bitrate=   6.5kbits/s speed=0.0089x elapsed=0:01:17.68    \nframe=   85 fps=1.1 q=52.0 size=       1KiB time=00:00:00.70 bitrate=   6.4kbits/s speed=0.00895x elapsed=0:01:18.24    \nframe=   86 fps=1.1 q=48.0 size=       1KiB time=00:00:00.70 bitrate=   6.3kbits/s speed=0.00899x elapsed=0:01:18.81    \nframe=   86 fps=1.1 q=48.0 size=       1KiB time=00:00:00.70 bitrate=   6.3kbits/s speed=0.00892x elapsed=0:01:19.38    \nframe=   86 fps=1.1 q=48.0 size=       1KiB time=00:00:00.70 bitrate=   6.3kbits/s speed=0.00886x elapsed=0:01:19.96    \nframe=   87 fps=1.1 q=53.0 size=       1KiB time=00:00:00.71 bitrate=   6.3kbits/s speed=0.0089x elapsed=0:01:20.54    \nframe=   87 fps=1.1 q=53.0 size=       1KiB time=00:00:00.71 bitrate=   6.3kbits/s speed=0.00883x elapsed=0:01:21.12    \nframe=   89 fps=1.1 q=41.0 size=       1KiB time=00:00:00.72 bitrate=   6.2kbits/s speed=0.00887x elapsed=0:01:21.69    \nframe=   90 fps=1.1 q=50.0 size=       1KiB time=00:00:00.74 bitrate=   6.0kbits/s speed=0.00901x elapsed=0:01:22.27    \nframe=   91 fps=1.1 q=54.0 size=       1KiB time=00:00:00.75 bitrate=   6.0kbits/s speed=0.00905x elapsed=0:01:22.84    \nframe=   92 fps=1.1 q=50.0 size=       1KiB time=00:00:00.75 bitrate=   5.9kbits/s speed=0.00909x elapsed=0:01:23.41    \nframe=   93 fps=1.1 q=51.0 size=       1KiB time=00:00:00.76 bitrate=   5.8kbits/s speed=0.00913x elapsed=0:01:23.99    \nframe=   95 fps=1.1 q=54.0 size=       1KiB time=00:00:00.78 bitrate=   5.7kbits/s speed=0.00926x elapsed=0:01:24.60    \nframe=   96 fps=1.1 q=51.0 size=       1KiB time=00:00:00.79 bitrate=   5.7kbits/s speed=0.00929x elapsed=0:01:25.17    \nframe=   97 fps=1.1 q=31.0 size=       1KiB time=00:00:00.80 bitrate=   5.6kbits/s speed=0.00933x elapsed=0:01:25.74    \nframe=   98 fps=1.1 q=51.0 size=       1KiB time=00:00:00.80 bitrate=   5.5kbits/s speed=0.00937x elapsed=0:01:26.30    \nframe=   98 fps=1.1 q=51.0 size=       1KiB time=00:00:00.80 bitrate=   5.5kbits/s speed=0.0093x elapsed=0:01:26.87    \nframe=  100 fps=1.1 q=50.0 size=       1KiB time=00:00:00.82 bitrate=   5.4kbits/s speed=0.00943x elapsed=0:01:27.44    \nframe=  101 fps=1.1 q=53.0 size=       1KiB time=00:00:00.83 bitrate=   5.4kbits/s speed=0.00947x elapsed=0:01:28.02    \nframe=  102 fps=1.2 q=51.0 size=       1KiB time=00:00:00.84 bitrate=   5.3kbits/s speed=0.0095x elapsed=0:01:28.59    \nframe=  103 fps=1.2 q=55.0 size=       1KiB time=00:00:00.85 bitrate=   5.3kbits/s speed=0.00953x elapsed=0:01:29.16    \nframe=  104 fps=1.2 q=51.0 size=       1KiB time=00:00:00.85 bitrate=   5.2kbits/s speed=0.00957x elapsed=0:01:29.71    \nframe=  106 fps=1.2 q=51.0 size=       1KiB time=00:00:00.87 bitrate=   5.1kbits/s speed=0.00969x elapsed=0:01:30.25    \nframe=  107 fps=1.2 q=55.0 size=       1KiB time=00:00:00.88 bitrate=   5.1kbits/s speed=0.00973x elapsed=0:01:30.79    \nframe=  107 fps=1.2 q=55.0 size=       1KiB time=00:00:00.88 bitrate=   5.1kbits/s speed=0.00967x elapsed=0:01:31.35    \nframe=  108 fps=1.2 q=51.0 size=       1KiB time=00:00:00.89 bitrate=   5.0kbits/s speed=0.0097x elapsed=0:01:31.91    \nframe=  111 fps=1.2 q=54.0 size=       1KiB time=00:00:00.91 bitrate=   4.9kbits/s speed=0.00991x elapsed=0:01:32.47    \nframe=  112 fps=1.2 q=52.0 size=       1KiB time=00:00:00.92 bitrate=   4.8kbits/s speed=0.00994x elapsed=0:01:33.04    \nframe=  113 fps=1.2 q=31.0 size=       1KiB time=00:00:00.93 bitrate=   4.8kbits/s speed=0.00997x elapsed=0:01:33.61    \nframe=  115 fps=1.2 q=56.0 size=       1KiB time=00:00:00.95 bitrate=   4.7kbits/s speed=0.0101x elapsed=0:01:34.18    \nframe=  116 fps=1.2 q=53.0 size=       1KiB time=00:00:00.95 bitrate=   4.7kbits/s speed=0.0101x elapsed=0:01:34.75    \nframe=  117 fps=1.2 q=53.0 size=       1KiB time=00:00:00.96 bitrate=   4.6kbits/s speed=0.0101x elapsed=0:01:35.31    \nframe=  118 fps=1.2 q=54.0 size=       1KiB time=00:00:00.97 bitrate=   4.6kbits/s speed=0.0102x elapsed=0:01:35.88    \nframe=  119 fps=1.2 q=56.0 size=       1KiB time=00:00:00.98 bitrate=   4.6kbits/s speed=0.0102x elapsed=0:01:36.45    \nframe=  120 fps=1.2 q=54.0 size=       1KiB time=00:00:00.99 bitrate=   4.5kbits/s speed=0.0102x elapsed=0:01:37.03    \nframe=  121 fps=1.2 q=41.0 size=       1KiB time=00:00:01.00 bitrate=   4.5kbits/s speed=0.0102x elapsed=0:01:37.61    \nframe=  123 fps=1.3 q=56.0 size=       1KiB time=00:00:01.01 bitrate=   4.4kbits/s speed=0.0104x elapsed=0:01:38.19    \nframe=  123 fps=1.2 q=56.0 size=       1KiB time=00:00:01.01 bitrate=   4.4kbits/s speed=0.0103x elapsed=0:01:38.80    \nframe=  124 fps=1.2 q=55.0 size=       1KiB time=00:00:01.02 bitrate=   4.4kbits/s speed=0.0103x elapsed=0:01:39.39    \nframe=  127 fps=1.3 q=54.0 size=       1KiB time=00:00:01.04 bitrate=   4.3kbits/s speed=0.0104x elapsed=0:01:39.98    \nframe=  128 fps=1.3 q=54.0 size=       1KiB time=00:00:01.05 bitrate=   4.2kbits/s speed=0.0105x elapsed=0:01:40.55    \nframe=  129 fps=1.3 q=31.0 size=       1KiB time=00:00:01.06 bitrate=   4.2kbits/s speed=0.0105x elapsed=0:01:41.12    \nframe=  130 fps=1.3 q=54.0 size=       1KiB time=00:00:01.07 bitrate=   4.2kbits/s speed=0.0106x elapsed=0:01:41.68    \nframe=  131 fps=1.3 q=55.0 size=       1KiB time=00:00:01.08 bitrate=   4.1kbits/s speed=0.0106x elapsed=0:01:42.25    \nframe=  134 fps=1.3 q=54.0 size=       1KiB time=00:00:01.10 bitrate=   4.0kbits/s speed=0.0108x elapsed=0:01:42.80    \nframe=  134 fps=1.3 q=54.0 size=       1KiB time=00:00:01.10 bitrate=   4.0kbits/s speed=0.0107x elapsed=0:01:43.36    \nframe=  135 fps=1.3 q=55.0 size=       1KiB time=00:00:01.11 bitrate=   4.0kbits/s speed=0.0107x elapsed=0:01:43.92    \nframe=  136 fps=1.3 q=54.0 size=       1KiB time=00:00:01.12 bitrate=   4.0kbits/s speed=0.0108x elapsed=0:01:44.46    \nframe=  139 fps=1.3 q=55.0 size=       1KiB time=00:00:01.14 bitrate=   3.9kbits/s speed=0.0109x elapsed=0:01:45.03    \nframe=  139 fps=1.3 q=55.0 size=       1KiB time=00:00:01.15 bitrate=   3.9kbits/s speed=0.0109x elapsed=0:01:45.60    \nframe=  141 fps=1.3 q=53.0 size=       1KiB time=00:00:01.16 bitrate=   3.8kbits/s speed=0.011x elapsed=0:01:46.17    \nframe=  143 fps=1.3 q=55.0 size=       1KiB time=00:00:01.18 bitrate=   3.8kbits/s speed=0.0111x elapsed=0:01:46.74    \nframe=  144 fps=1.3 q=56.0 size=       1KiB time=00:00:01.18 bitrate=   3.8kbits/s speed=0.011x elapsed=0:01:47.31    \nframe=  145 fps=1.3 q=33.0 size=       1KiB time=00:00:01.20 bitrate=   3.7kbits/s speed=0.0111x elapsed=0:01:47.89    \nframe=  146 fps=1.3 q=56.0 size=       1KiB time=00:00:01.20 bitrate=   3.7kbits/s speed=0.0111x elapsed=0:01:48.45    \nframe=  148 fps=1.4 q=56.0 size=       1KiB time=00:00:01.22 bitrate=   3.7kbits/s speed=0.0112x elapsed=0:01:49.02    \nframe=  149 fps=1.4 q=54.0 size=       1KiB time=00:00:01.23 bitrate=   3.6kbits/s speed=0.0113x elapsed=0:01:49.60    \nframe=  150 fps=1.4 q=56.0 size=       1KiB time=00:00:01.24 bitrate=   3.6kbits/s speed=0.0113x elapsed=0:01:50.15    \nframe=  150 fps=1.4 q=56.0 size=       1KiB time=00:00:01.24 bitrate=   3.6kbits/s speed=0.0112x elapsed=0:01:50.72    \nframe=  151 fps=1.4 q=56.0 size=       1KiB time=00:00:01.25 bitrate=   3.6kbits/s speed=0.0112x elapsed=0:01:51.28    \nframe=  151 fps=1.3 q=56.0 size=       1KiB time=00:00:01.25 bitrate=   3.6kbits/s speed=0.0112x elapsed=0:01:51.86    \nframe=  152 fps=1.4 q=50.0 size=       1KiB time=00:00:01.25 bitrate=   3.6kbits/s speed=0.0112x elapsed=0:01:52.43    \nframe=  154 fps=1.4 q=58.0 size=       1KiB time=00:00:01.27 bitrate=   3.5kbits/s speed=0.0113x elapsed=0:01:53.01    \nframe=  155 fps=1.4 q=56.0 size=       1KiB time=00:00:01.28 bitrate=   3.5kbits/s speed=0.0113x elapsed=0:01:53.58    \nframe=  156 fps=1.4 q=53.0 size=       1KiB time=00:00:01.29 bitrate=   3.5kbits/s speed=0.0113x elapsed=0:01:54.13    \nframe=  158 fps=1.4 q=57.0 size=       1KiB time=00:00:01.30 bitrate=   3.4kbits/s speed=0.0114x elapsed=0:01:54.71    \nframe=  159 fps=1.4 q=55.0 size=       1KiB time=00:00:01.31 bitrate=   3.4kbits/s speed=0.0114x elapsed=0:01:55.29    \nframe=  161 fps=1.4 q=36.0 size=       1KiB time=00:00:01.33 bitrate=   3.4kbits/s speed=0.0115x elapsed=0:01:55.85    \nframe=  162 fps=1.4 q=58.0 size=       1KiB time=00:00:01.34 bitrate=   3.3kbits/s speed=0.0115x elapsed=0:01:56.40    \nframe=  164 fps=1.4 q=58.0 size=       1KiB time=00:00:01.35 bitrate=   3.3kbits/s speed=0.0116x elapsed=0:01:56.97    \nframe=  165 fps=1.4 q=54.0 size=       1KiB time=00:00:01.36 bitrate=   3.3kbits/s speed=0.0116x elapsed=0:01:57.53    \nframe=  166 fps=1.4 q=58.0 size=       1KiB time=00:00:01.37 bitrate=   3.3kbits/s speed=0.0116x elapsed=0:01:58.11    \nframe=  166 fps=1.4 q=58.0 size=       1KiB time=00:00:01.37 bitrate=   3.3kbits/s speed=0.0116x elapsed=0:01:58.67    \nframe=  167 fps=1.4 q=57.0 size=       1KiB time=00:00:01.38 bitrate=   3.2kbits/s speed=0.0116x elapsed=0:01:59.26    \nframe=  167 fps=1.4 q=57.0 size=       1KiB time=00:00:01.38 bitrate=   3.2kbits/s speed=0.0115x elapsed=0:01:59.88    \nframe=  169 fps=1.4 q=48.0 size=       1KiB time=00:00:01.40 bitrate=   3.2kbits/s speed=0.0116x elapsed=0:02:00.46    \nframe=  170 fps=1.4 q=58.0 size=       1KiB time=00:00:01.40 bitrate=   3.2kbits/s speed=0.0116x elapsed=0:02:01.02    \nframe=  171 fps=1.4 q=56.0 size=       1KiB time=00:00:01.41 bitrate=   3.2kbits/s speed=0.0116x elapsed=0:02:01.61    \nframe=  172 fps=1.4 q=54.0 size=       1KiB time=00:00:01.42 bitrate=   3.1kbits/s speed=0.0117x elapsed=0:02:02.18    \nframe=  174 fps=1.4 q=57.0 size=       1KiB time=00:00:01.44 bitrate=   3.1kbits/s speed=0.0117x elapsed=0:02:02.75    \nframe=  175 fps=1.4 q=55.0 size=       1KiB time=00:00:01.45 bitrate=   3.1kbits/s speed=0.0118x elapsed=0:02:03.31    \nframe=  176 fps=1.4 q=57.0 size=       1KiB time=00:00:01.45 bitrate=   3.1kbits/s speed=0.0118x elapsed=0:02:03.88    \nframe=  177 fps=1.4 q=37.0 size=       1KiB time=00:00:01.46 bitrate=   3.1kbits/s speed=0.0118x elapsed=0:02:04.48    \nframe=  179 fps=1.4 q=57.0 size=       1KiB time=00:00:01.48 bitrate=   3.0kbits/s speed=0.0119x elapsed=0:02:05.06    \nframe=  180 fps=1.4 q=58.0 size=       1KiB time=00:00:01.49 bitrate=   3.0kbits/s speed=0.0119x elapsed=0:02:05.64    \nframe=  182 fps=1.4 q=58.0 size=       1KiB time=00:00:01.50 bitrate=   3.0kbits/s speed=0.012x elapsed=0:02:06.17    \nframe=  182 fps=1.4 q=58.0 size=       1KiB time=00:00:01.50 bitrate=   3.0kbits/s speed=0.0119x elapsed=0:02:06.73    \nframe=  183 fps=1.4 q=57.0 size=       1KiB time=00:00:01.51 bitrate=   3.0kbits/s speed=0.0119x elapsed=0:02:07.29    \nframe=  184 fps=1.4 q=58.0 size=       1KiB time=00:00:01.52 bitrate=   2.9kbits/s speed=0.0119x elapsed=0:02:07.86    \nframe=  187 fps=1.5 q=56.0 size=       1KiB time=00:00:01.55 bitrate=   2.9kbits/s speed=0.0121x elapsed=0:02:08.43    \nframe=  188 fps=1.5 q=58.0 size=       1KiB time=00:00:01.55 bitrate=   2.9kbits/s speed=0.0121x elapsed=0:02:09.00    \nframe=  190 fps=1.5 q=58.0 size=       1KiB time=00:00:01.56 bitrate=   2.9kbits/s speed=0.0121x elapsed=0:02:09.56    \nframe=  192 fps=1.5 q=58.0 size=       1KiB time=00:00:01.58 bitrate=   2.8kbits/s speed=0.0122x elapsed=0:02:10.14    \nframe=  193 fps=1.5 q=39.0 size=       1KiB time=00:00:01.60 bitrate=   2.8kbits/s speed=0.0122x elapsed=0:02:10.74    \nframe=  194 fps=1.5 q=58.0 size=       1KiB time=00:00:01.60 bitrate=   2.8kbits/s speed=0.0122x elapsed=0:02:11.32    \nframe=  195 fps=1.5 q=57.0 size=       1KiB time=00:00:01.61 bitrate=   2.8kbits/s speed=0.0123x elapsed=0:02:11.89    \nframe=  197 fps=1.5 q=54.0 size=       1KiB time=00:00:01.63 bitrate=   2.7kbits/s speed=0.0123x elapsed=0:02:12.49    \nframe=  198 fps=1.5 q=58.0 size=       1KiB time=00:00:01.64 bitrate=   2.7kbits/s speed=0.0123x elapsed=0:02:13.08    \nframe=  199 fps=1.5 q=57.0 size=       1KiB time=00:00:01.65 bitrate=   2.7kbits/s speed=0.0123x elapsed=0:02:13.68    \nframe=  199 fps=1.5 q=57.0 size=       1KiB time=00:00:01.65 bitrate=   2.7kbits/s speed=0.0123x elapsed=0:02:14.27    \nframe=  200 fps=1.5 q=58.0 size=       1KiB time=00:00:01.65 bitrate=   2.7kbits/s speed=0.0123x elapsed=0:02:14.87    \nframe=  202 fps=1.5 q=58.0 size=       1KiB time=00:00:01.67 bitrate=   2.7kbits/s speed=0.0124x elapsed=0:02:15.44    \nframe=  203 fps=1.5 q=57.0 size=       1KiB time=00:00:01.68 bitrate=   2.7kbits/s speed=0.0124x elapsed=0:02:16.04    \nframe=  203 fps=1.5 q=57.0 size=       1KiB time=00:00:01.68 bitrate=   2.7kbits/s speed=0.0123x elapsed=0:02:16.62    \nframe=  204 fps=1.5 q=58.0 size=       1KiB time=00:00:01.69 bitrate=   2.6kbits/s speed=0.0123x elapsed=0:02:17.19    \nframe=  205 fps=1.5 q=54.0 size=       1KiB time=00:00:01.70 bitrate=   2.6kbits/s speed=0.0123x elapsed=0:02:17.80    \nframe=  207 fps=1.5 q=55.0 size=       1KiB time=00:00:01.71 bitrate=   2.6kbits/s speed=0.0124x elapsed=0:02:18.40    \nframe=  207 fps=1.5 q=55.0 size=       1KiB time=00:00:01.71 bitrate=   2.6kbits/s speed=0.0124x elapsed=0:02:18.97    \nframe=  209 fps=1.5 q=38.0 size=       1KiB time=00:00:01.73 bitrate=   2.6kbits/s speed=0.0124x elapsed=0:02:19.53    \nframe=  210 fps=1.5 q=58.0 size=       1KiB time=00:00:01.74 bitrate=   2.6kbits/s speed=0.0124x elapsed=0:02:20.08    \nframe=  213 fps=1.5 q=54.0 size=       1KiB time=00:00:01.75 bitrate=   2.5kbits/s speed=0.0125x elapsed=0:02:20.64    \nframe=  214 fps=1.5 q=58.0 size=       1KiB time=00:00:01.77 bitrate=   2.5kbits/s speed=0.0126x elapsed=0:02:21.19    \nframe=  214 fps=1.5 q=58.0 size=       1KiB time=00:00:01.77 bitrate=   2.5kbits/s speed=0.0125x elapsed=0:02:21.75    \nframe=  215 fps=1.5 q=57.0 size=       1KiB time=00:00:01.78 bitrate=   2.5kbits/s speed=0.0125x elapsed=0:02:22.31    \nframe=  216 fps=1.5 q=58.0 size=       1KiB time=00:00:01.78 bitrate=   2.5kbits/s speed=0.0125x elapsed=0:02:22.91    \nframe=  217 fps=1.5 q=49.0 size=       1KiB time=00:00:01.80 bitrate=   2.5kbits/s speed=0.0125x elapsed=0:02:23.48    \nframe=  219 fps=1.5 q=56.0 size=       1KiB time=00:00:01.81 bitrate=   2.5kbits/s speed=0.0126x elapsed=0:02:24.04    \nframe=  221 fps=1.5 q=53.0 size=       1KiB time=00:00:01.82 bitrate=   2.5kbits/s speed=0.0126x elapsed=0:02:24.59    \nframe=  222 fps=1.5 q=58.0 size=       1KiB time=00:00:01.84 bitrate=   2.4kbits/s speed=0.0127x elapsed=0:02:25.16    \nframe=  223 fps=1.5 q=56.0 size=       1KiB time=00:00:01.85 bitrate=   2.4kbits/s speed=0.0127x elapsed=0:02:25.75    \nframe=  224 fps=1.5 q=58.0 size=       1KiB time=00:00:01.85 bitrate=   2.4kbits/s speed=0.0126x elapsed=0:02:26.36    \nframe=  225 fps=1.5 q=39.0 size=       1KiB time=00:00:01.86 bitrate=   2.4kbits/s speed=0.0127x elapsed=0:02:26.95    \nframe=  226 fps=1.5 q=59.0 size=       1KiB time=00:00:01.87 bitrate=   2.4kbits/s speed=0.0127x elapsed=0:02:27.54    \nframe=  227 fps=1.5 q=58.0 size=       1KiB time=00:00:01.88 bitrate=   2.4kbits/s speed=0.0127x elapsed=0:02:28.13    \nframe=  229 fps=1.5 q=55.0 size=       1KiB time=00:00:01.89 bitrate=   2.4kbits/s speed=0.0127x elapsed=0:02:28.72    \nframe=  230 fps=1.5 q=59.0 size=       1KiB time=00:00:01.90 bitrate=   2.3kbits/s speed=0.0128x elapsed=0:02:29.32    \nframe=  230 fps=1.5 q=59.0 size=       1KiB time=00:00:01.90 bitrate=   2.3kbits/s speed=0.0127x elapsed=0:02:29.91    \nframe=  231 fps=1.5 q=58.0 size=       1KiB time=00:00:01.91 bitrate=   2.3kbits/s speed=0.0127x elapsed=0:02:30.50    \nframe=  232 fps=1.5 q=59.0 size=       1KiB time=00:00:01.92 bitrate=   2.3kbits/s speed=0.0127x elapsed=0:02:31.08    \nframe=  233 fps=1.5 q=50.0 size=       1KiB time=00:00:01.93 bitrate=   2.3kbits/s speed=0.0127x elapsed=0:02:31.67    \nframe=  236 fps=1.6 q=59.0 size=       1KiB time=00:00:01.95 bitrate=   2.3kbits/s speed=0.0129x elapsed=0:02:32.23    \nframe=  239 fps=1.6 q=56.0 size=       1KiB time=00:00:01.97 bitrate=   2.3kbits/s speed=0.0129x elapsed=0:02:32.78    \nframe=  240 fps=1.6 q=59.0 size=       1KiB time=00:00:01.99 bitrate=   2.2kbits/s speed=0.013x elapsed=0:02:33.35    \nframe=  242 fps=1.6 q=60.0 size=       1KiB time=00:00:02.00 bitrate=   2.2kbits/s speed=0.013x elapsed=0:02:33.90    \nframe=  242 fps=1.6 q=60.0 size=       1KiB time=00:00:02.00 bitrate=   2.2kbits/s speed=0.013x elapsed=0:02:34.48    \nframe=  245 fps=1.6 q=56.0 size=       1KiB time=00:00:02.02 bitrate=   2.2kbits/s speed=0.0131x elapsed=0:02:35.06    \nframe=  246 fps=1.6 q=60.0 size=       1KiB time=00:00:02.04 bitrate=   2.2kbits/s speed=0.0131x elapsed=0:02:35.62    \nframe=  246 fps=1.6 q=60.0 size=       1KiB time=00:00:02.04 bitrate=   2.2kbits/s speed=0.0131x elapsed=0:02:36.19    \nframe=  247 fps=1.6 q=59.0 size=       1KiB time=00:00:02.05 bitrate=   2.2kbits/s speed=0.0131x elapsed=0:02:36.76    \nframe=  248 fps=1.6 q=60.0 size=       1KiB time=00:00:02.05 bitrate=   2.2kbits/s speed=0.0131x elapsed=0:02:37.32    \nframe=  250 fps=1.6 q=60.0 size=       1KiB time=00:00:02.06 bitrate=   2.2kbits/s speed=0.0131x elapsed=0:02:37.89    \nframe=  251 fps=1.6 q=58.0 size=       1KiB time=00:00:02.08 bitrate=   2.2kbits/s speed=0.0131x elapsed=0:02:38.47    \nframe=  252 fps=1.6 q=60.0 size=       1KiB time=00:00:02.09 bitrate=   2.1kbits/s speed=0.0131x elapsed=0:02:39.09    \nframe=  253 fps=1.6 q=55.0 size=       1KiB time=00:00:02.10 bitrate=   2.1kbits/s speed=0.0131x elapsed=0:02:39.73    \nframe=  255 fps=1.6 q=58.0 size=       1KiB time=00:00:02.11 bitrate=   2.1kbits/s speed=0.0132x elapsed=0:02:40.35    \nframe=  256 fps=1.6 q=60.0 size=       1KiB time=00:00:02.11 bitrate=   2.1kbits/s speed=0.0132x elapsed=0:02:40.93    \nframe=  257 fps=1.6 q=41.0 size=       1KiB time=00:00:02.13 bitrate=   2.1kbits/s speed=0.0132x elapsed=0:02:41.53    \nframe=  258 fps=1.6 q=61.0 size=       1KiB time=00:00:02.14 bitrate=   2.1kbits/s speed=0.0132x elapsed=0:02:42.10    \nframe=  259 fps=1.6 q=60.0 size=       1KiB time=00:00:02.15 bitrate=   2.1kbits/s speed=0.0132x elapsed=0:02:42.69    \nframe=  262 fps=1.6 q=61.0 size=       1KiB time=00:00:02.17 bitrate=   2.1kbits/s speed=0.0133x elapsed=0:02:43.26    \nframe=  262 fps=1.6 q=61.0 size=       1KiB time=00:00:02.17 bitrate=   2.1kbits/s speed=0.0133x elapsed=0:02:43.85    \nframe=  264 fps=1.6 q=61.0 size=       1KiB time=00:00:02.19 bitrate=   2.0kbits/s speed=0.0133x elapsed=0:02:44.42    \nframe=  266 fps=1.6 q=61.0 size=       1KiB time=00:00:02.20 bitrate=   2.0kbits/s speed=0.0134x elapsed=0:02:44.99    \nframe=  268 fps=1.6 q=61.0 size=       1KiB time=00:00:02.22 bitrate=   2.0kbits/s speed=0.0134x elapsed=0:02:45.57    \nframe=  271 fps=1.6 q=59.0 size=       1KiB time=00:00:02.25 bitrate=   2.0kbits/s speed=0.0135x elapsed=0:02:46.14    \nframe=  274 fps=1.6 q=62.0 size=       1KiB time=00:00:02.26 bitrate=   2.0kbits/s speed=0.0136x elapsed=0:02:46.69    \nframe=  277 fps=1.7 q=59.0 size=       1KiB time=00:00:02.29 bitrate=   2.0kbits/s speed=0.0137x elapsed=0:02:47.24    \nframe=  279 fps=1.7 q=61.0 size=       1KiB time=00:00:02.31 bitrate=   1.9kbits/s speed=0.0138x elapsed=0:02:47.78    \nframe=  281 fps=1.7 q=55.0 size=       1KiB time=00:00:02.33 bitrate=   1.9kbits/s speed=0.0139x elapsed=0:02:48.33    \nframe=  284 fps=1.7 q=62.0 size=       1KiB time=00:00:02.35 bitrate=   1.9kbits/s speed=0.014x elapsed=0:02:48.88    \nframe=  285 fps=1.7 q=59.0 size=       1KiB time=00:00:02.36 bitrate=   1.9kbits/s speed=0.014x elapsed=0:02:49.44    \nframe=  287 fps=1.7 q=61.0 size=       1KiB time=00:00:02.38 bitrate=   1.9kbits/s speed=0.014x elapsed=0:02:50.03    \nframe=  289 fps=1.7 q=47.0 size=       1KiB time=00:00:02.40 bitrate=   1.9kbits/s speed=0.0141x elapsed=0:02:50.57    \nframe=  290 fps=1.7 q=62.0 size=       1KiB time=00:00:02.40 bitrate=   1.9kbits/s speed=0.0141x elapsed=0:02:51.13    \nframe=  293 fps=1.7 q=59.0 size=       1KiB time=00:00:02.43 bitrate=   1.8kbits/s speed=0.0142x elapsed=0:02:51.71    \nframe=  294 fps=1.7 q=62.0 size=       1KiB time=00:00:02.44 bitrate=   1.8kbits/s speed=0.0142x elapsed=0:02:52.29    \nframe=  294 fps=1.7 q=62.0 size=       1KiB time=00:00:02.44 bitrate=   1.8kbits/s speed=0.0141x elapsed=0:02:52.91    \nframe=  295 fps=1.7 q=61.0 size=       1KiB time=00:00:02.44 bitrate=   1.8kbits/s speed=0.0141x elapsed=0:02:53.53    \nframe=  295 fps=1.7 q=61.0 size=       1KiB time=00:00:02.45 bitrate=   1.8kbits/s speed=0.0141x elapsed=0:02:54.11    \nframe=  296 fps=1.7 q=56.0 size=       1KiB time=00:00:02.45 bitrate=   1.8kbits/s speed=0.0141x elapsed=0:02:54.72    \nframe=  298 fps=1.7 q=61.0 size=       1KiB time=00:00:02.47 bitrate=   1.8kbits/s speed=0.0141x elapsed=0:02:55.30    \nframe=  299 fps=1.7 q=59.0 size=       1KiB time=00:00:02.48 bitrate=   1.8kbits/s speed=0.0141x elapsed=0:02:55.88    \nframe=  301 fps=1.7 q=56.0 size=       1KiB time=00:00:02.50 bitrate=   1.8kbits/s speed=0.0142x elapsed=0:02:56.45    \nframe=  303 fps=1.7 q=59.0 size=       1KiB time=00:00:02.51 bitrate=   1.8kbits/s speed=0.0142x elapsed=0:02:57.03    \nframe=  304 fps=1.7 q=60.0 size=       1KiB time=00:00:02.52 bitrate=   1.8kbits/s speed=0.0142x elapsed=0:02:57.61    \nframe=  305 fps=1.7 q=49.0 size=       1KiB time=00:00:02.53 bitrate=   1.8kbits/s speed=0.0142x elapsed=0:02:58.19    \nframe=  306 fps=1.7 q=61.0 size=       1KiB time=00:00:02.54 bitrate=   1.8kbits/s speed=0.0142x elapsed=0:02:58.77    \nframe=  308 fps=1.7 q=61.0 size=       1KiB time=00:00:02.55 bitrate=   1.8kbits/s speed=0.0143x elapsed=0:02:59.35    \nframe=  309 fps=1.7 q=59.0 size=       1KiB time=00:00:02.56 bitrate=   1.7kbits/s speed=0.0143x elapsed=0:02:59.92    \nframe=  310 fps=1.7 q=61.0 size=       1KiB time=00:00:02.57 bitrate=   1.7kbits/s speed=0.0143x elapsed=0:03:00.51    \nframe=  310 fps=1.7 q=61.0 size=       1KiB time=00:00:02.57 bitrate=   1.7kbits/s speed=0.0142x elapsed=0:03:01.09    \nframe=  311 fps=1.7 q=60.0 size=       1KiB time=00:00:02.58 bitrate=   1.7kbits/s speed=0.0142x elapsed=0:03:01.68    \nframe=  311 fps=1.7 q=60.0 size=       1KiB time=00:00:02.58 bitrate=   1.7kbits/s speed=0.0142x elapsed=0:03:02.28    \nframe=  313 fps=1.7 q=56.0 size=       1KiB time=00:00:02.60 bitrate=   1.7kbits/s speed=0.0142x elapsed=0:03:02.87    \nframe=  315 fps=1.7 q=58.0 size=       1KiB time=00:00:02.61 bitrate=   1.7kbits/s speed=0.0143x elapsed=0:03:03.45    \nframe=  315 fps=1.7 q=58.0 size=       1KiB time=00:00:02.61 bitrate=   1.7kbits/s speed=0.0142x elapsed=0:03:04.04    \nframe=  317 fps=1.7 q=55.0 size=       1KiB time=00:00:02.63 bitrate=   1.7kbits/s speed=0.0143x elapsed=0:03:04.62    \nframe=  319 fps=1.7 q=58.0 size=       1KiB time=00:00:02.65 bitrate=   1.7kbits/s speed=0.0143x elapsed=0:03:05.19    \nframe=  321 fps=1.7 q=49.0 size=       1KiB time=00:00:02.66 bitrate=   1.7kbits/s speed=0.0144x elapsed=0:03:05.76    \nframe=  323 fps=1.7 q=60.0 size=       1KiB time=00:00:02.68 bitrate=   1.7kbits/s speed=0.0144x elapsed=0:03:06.31    \nframe=  325 fps=1.7 q=58.0 size=       1KiB time=00:00:02.70 bitrate=   1.7kbits/s speed=0.0144x elapsed=0:03:06.86    \nframe=  326 fps=1.7 q=58.0 size=       1KiB time=00:00:02.70 bitrate=   1.7kbits/s speed=0.0145x elapsed=0:03:07.41    \nframe=  327 fps=1.7 q=55.0 size=       1KiB time=00:00:02.71 bitrate=   1.6kbits/s speed=0.0145x elapsed=0:03:07.97    \nframe=  328 fps=1.7 q=58.0 size=       1KiB time=00:00:02.72 bitrate=   1.6kbits/s speed=0.0145x elapsed=0:03:08.53    \nframe=  330 fps=1.7 q=60.0 size=       1KiB time=00:00:02.74 bitrate=   1.6kbits/s speed=0.0145x elapsed=0:03:09.10    \nframe=  332 fps=1.8 q=60.0 size=       1KiB time=00:00:02.75 bitrate=   1.6kbits/s speed=0.0145x elapsed=0:03:09.69    \nframe=  333 fps=1.7 q=54.0 size=       1KiB time=00:00:02.76 bitrate=   1.6kbits/s speed=0.0145x elapsed=0:03:10.29    \nframe=  335 fps=1.8 q=58.0 size=       1KiB time=00:00:02.78 bitrate=   1.6kbits/s speed=0.0146x elapsed=0:03:10.88    \nframe=  336 fps=1.8 q=59.0 size=       1KiB time=00:00:02.79 bitrate=   1.6kbits/s speed=0.0146x elapsed=0:03:11.46    \nframe=  338 fps=1.8 q=60.0 size=       1KiB time=00:00:02.80 bitrate=   1.6kbits/s speed=0.0146x elapsed=0:03:12.04    \nframe=  340 fps=1.8 q=60.0 size=       1KiB time=00:00:02.82 bitrate=   1.6kbits/s speed=0.0147x elapsed=0:03:12.63    \nframe=  341 fps=1.8 q=57.0 size=       1KiB time=00:00:02.83 bitrate=   1.6kbits/s speed=0.0147x elapsed=0:03:13.21    \nframe=  342 fps=1.8 q=60.0 size=       1KiB time=00:00:02.84 bitrate=   1.6kbits/s speed=0.0147x elapsed=0:03:13.79    \nframe=  342 fps=1.8 q=60.0 size=       1KiB time=00:00:02.84 bitrate=   1.6kbits/s speed=0.0146x elapsed=0:03:14.37    \nframe=  343 fps=1.8 q=59.0 size=       1KiB time=00:00:02.85 bitrate=   1.6kbits/s speed=0.0146x elapsed=0:03:14.95    \nframe=  345 fps=1.8 q=53.0 size=       1KiB time=00:00:02.86 bitrate=   1.6kbits/s speed=0.0147x elapsed=0:03:15.52    \nframe=  347 fps=1.8 q=57.0 size=       1KiB time=00:00:02.88 bitrate=   1.6kbits/s speed=0.0147x elapsed=0:03:16.10    \nframe=  349 fps=1.8 q=54.0 size=       1KiB time=00:00:02.90 bitrate=   1.5kbits/s speed=0.0147x elapsed=0:03:16.67    \nframe=  350 fps=1.8 q=59.0 size=       1KiB time=00:00:02.90 bitrate=   1.5kbits/s speed=0.0147x elapsed=0:03:17.23    \nframe=  352 fps=1.8 q=59.0 size=       1KiB time=00:00:02.91 bitrate=   1.5kbits/s speed=0.0147x elapsed=0:03:17.78    \nframe=  353 fps=1.8 q=44.0 size=       1KiB time=00:00:02.93 bitrate=   1.5kbits/s speed=0.0148x elapsed=0:03:18.35    \nframe=  354 fps=1.8 q=59.0 size=       1KiB time=00:00:02.94 bitrate=   1.5kbits/s speed=0.0148x elapsed=0:03:18.93    \nframe=  355 fps=1.8 q=58.0 size=       1KiB time=00:00:02.95 bitrate=   1.5kbits/s speed=0.0148x elapsed=0:03:19.50    \nframe=  356 fps=1.8 q=59.0 size=       1KiB time=00:00:02.95 bitrate=   1.5kbits/s speed=0.0148x elapsed=0:03:20.07    \nframe=  358 fps=1.8 q=58.0 size=       1KiB time=00:00:02.97 bitrate=   1.5kbits/s speed=0.0148x elapsed=0:03:20.66    \nframe=  358 fps=1.8 q=58.0 size=       1KiB time=00:00:02.97 bitrate=   1.5kbits/s speed=0.0148x elapsed=0:03:21.25    \nframe=  359 fps=1.8 q=55.0 size=       1KiB time=00:00:02.98 bitrate=   1.5kbits/s speed=0.0148x elapsed=0:03:21.84    \nframe=  359 fps=1.8 q=55.0 size=       1KiB time=00:00:02.98 bitrate=   1.5kbits/s speed=0.0147x elapsed=0:03:22.48    \nframe=  360 fps=1.8 q=58.0 size=       1KiB time=00:00:02.99 bitrate=   1.5kbits/s speed=0.0147x elapsed=0:03:23.10    \nframe=  362 fps=1.8 q=59.0 size=       1KiB time=00:00:03.00 bitrate=   1.5kbits/s speed=0.0148x elapsed=0:03:23.69    \nframe=  363 fps=1.8 q=57.0 size=       1KiB time=00:00:03.01 bitrate=   1.5kbits/s speed=0.0148x elapsed=0:03:24.28    \nframe=  364 fps=1.8 q=56.0 size=       1KiB time=00:00:03.02 bitrate=   1.5kbits/s speed=0.0148x elapsed=0:03:24.86    \nframe=  366 fps=1.8 q=58.0 size=       1KiB time=00:00:03.04 bitrate=   1.5kbits/s speed=0.0148x elapsed=0:03:25.44    \nframe=  368 fps=1.8 q=58.0 size=       1KiB time=00:00:03.05 bitrate=   1.5kbits/s speed=0.0148x elapsed=0:03:25.99    \nframe=  370 fps=1.8 q=59.0 size=       1KiB time=00:00:03.07 bitrate=   1.5kbits/s speed=0.0149x elapsed=0:03:26.55    \nframe=  372 fps=1.8 q=59.0 size=       1KiB time=00:00:03.08 bitrate=   1.5kbits/s speed=0.0149x elapsed=0:03:27.11    \nframe=  374 fps=1.8 q=59.0 size=       1KiB time=00:00:03.10 bitrate=   1.4kbits/s speed=0.015x elapsed=0:03:27.68    \nframe=  375 fps=1.8 q=58.0 size=       1KiB time=00:00:03.10 bitrate=   1.4kbits/s speed=0.0149x elapsed=0:03:28.23    \nframe=  376 fps=1.8 q=59.0 size=       1KiB time=00:00:03.12 bitrate=   1.4kbits/s speed=0.015x elapsed=0:03:28.80    \nframe=  379 fps=1.8 q=57.0 size=       1KiB time=00:00:03.15 bitrate=   1.4kbits/s speed=0.015x elapsed=0:03:29.37    \nframe=  381 fps=1.8 q=54.0 size=       1KiB time=00:00:03.16 bitrate=   1.4kbits/s speed=0.0151x elapsed=0:03:29.91    \nframe=  384 fps=1.8 q=58.0 size=       1KiB time=00:00:03.19 bitrate=   1.4kbits/s speed=0.0152x elapsed=0:03:30.47    \nframe=  386 fps=1.8 q=59.0 size=       1KiB time=00:00:03.20 bitrate=   1.4kbits/s speed=0.0152x elapsed=0:03:31.04    \nframe=  388 fps=1.8 q=59.0 size=       1KiB time=00:00:03.22 bitrate=   1.4kbits/s speed=0.0152x elapsed=0:03:31.59    \nframe=  389 fps=1.8 q=56.0 size=       1KiB time=00:00:03.23 bitrate=   1.4kbits/s speed=0.0152x elapsed=0:03:32.14    \nframe=  390 fps=1.8 q=59.0 size=       1KiB time=00:00:03.24 bitrate=   1.4kbits/s speed=0.0152x elapsed=0:03:32.71    \nframe=  392 fps=1.8 q=59.0 size=       1KiB time=00:00:03.25 bitrate=   1.4kbits/s speed=0.0153x elapsed=0:03:33.30    \nframe=  395 fps=1.8 q=57.0 size=       1KiB time=00:00:03.28 bitrate=   1.4kbits/s speed=0.0154x elapsed=0:03:33.87    \nframe=  397 fps=1.9 q=53.0 size=       1KiB time=00:00:03.30 bitrate=   1.4kbits/s speed=0.0154x elapsed=0:03:34.44    \nframe=  401 fps=1.9 q=43.0 size=       1KiB time=00:00:03.33 bitrate=   1.3kbits/s speed=0.0155x elapsed=0:03:34.99    \nframe=  403 fps=1.9 q=58.0 size=       1KiB time=00:00:03.35 bitrate=   1.3kbits/s speed=0.0155x elapsed=0:03:35.55    \nframe=  404 fps=1.9 q=59.0 size=       1KiB time=00:00:03.35 bitrate=   1.3kbits/s speed=0.0155x elapsed=0:03:36.12    \nframe=  406 fps=1.9 q=58.0 size=       1KiB time=00:00:03.37 bitrate=   1.3kbits/s speed=0.0156x elapsed=0:03:36.69    \nframe=  407 fps=1.9 q=55.0 size=       1KiB time=00:00:03.37 bitrate=   1.3kbits/s speed=0.0155x elapsed=0:03:37.28    \nframe=  407 fps=1.9 q=55.0 size=       1KiB time=00:00:03.38 bitrate=   1.3kbits/s speed=0.0155x elapsed=0:03:37.88    \nframe=  410 fps=1.9 q=59.0 size=       1KiB time=00:00:03.40 bitrate=   1.3kbits/s speed=0.0156x elapsed=0:03:38.48    \nframe=  411 fps=1.9 q=57.0 size=       1KiB time=00:00:03.41 bitrate=   1.3kbits/s speed=0.0156x elapsed=0:03:39.08    \nframe=  412 fps=1.9 q=56.0 size=       1KiB time=00:00:03.42 bitrate=   1.3kbits/s speed=0.0156x elapsed=0:03:39.69    \nframe=  416 fps=1.9 q=58.0 size=       1KiB time=00:00:03.45 bitrate=   1.3kbits/s speed=0.0157x elapsed=0:03:40.26    \nframe=  418 fps=1.9 q=59.0 size=       1KiB time=00:00:03.47 bitrate=   1.3kbits/s speed=0.0157x elapsed=0:03:40.84    \nframe=  419 fps=1.9 q=58.0 size=       1KiB time=00:00:03.48 bitrate=   1.3kbits/s speed=0.0157x elapsed=0:03:41.42    \nframe=  421 fps=1.9 q=56.0 size=       1KiB time=00:00:03.50 bitrate=   1.3kbits/s speed=0.0158x elapsed=0:03:42.00    \nframe=  422 fps=1.9 q=55.0 size=       1KiB time=00:00:03.50 bitrate=   1.3kbits/s speed=0.0158x elapsed=0:03:42.57    \nframe=  423 fps=1.9 q=51.0 size=       1KiB time=00:00:03.51 bitrate=   1.3kbits/s speed=0.0158x elapsed=0:03:43.17    \nframe=  426 fps=1.9 q=58.0 size=       1KiB time=00:00:03.53 bitrate=   1.3kbits/s speed=0.0158x elapsed=0:03:43.78    \nframe=  427 fps=1.9 q=56.0 size=       1KiB time=00:00:03.55 bitrate=   1.3kbits/s speed=0.0158x elapsed=0:03:44.39    \nframe=  429 fps=1.9 q=53.0 size=       1KiB time=00:00:03.56 bitrate=   1.3kbits/s speed=0.0159x elapsed=0:03:45.00    \nframe=  433 fps=1.9 q=43.0 size=       1KiB time=00:00:03.59 bitrate=   1.2kbits/s speed=0.0159x elapsed=0:03:45.58    \nframe=  435 fps=1.9 q=57.0 size=       1KiB time=00:00:03.61 bitrate=   1.2kbits/s speed=0.016x elapsed=0:03:46.12    \nframe=  436 fps=1.9 q=58.0 size=       1KiB time=00:00:03.62 bitrate=   1.2kbits/s speed=0.016x elapsed=0:03:46.68    \nframe=  438 fps=1.9 q=55.0 size=       1KiB time=00:00:03.64 bitrate=   1.2kbits/s speed=0.016x elapsed=0:03:47.23    \nframe=  439 fps=1.9 q=51.0 size=       1KiB time=00:00:03.65 bitrate=   1.2kbits/s speed=0.016x elapsed=0:03:47.80    \nframe=  440 fps=1.9 q=55.0 size=       1KiB time=00:00:03.65 bitrate=   1.2kbits/s speed=0.016x elapsed=0:03:48.42    \nframe=  443 fps=1.9 q=56.0 size=       1KiB time=00:00:03.68 bitrate=   1.2kbits/s speed=0.0161x elapsed=0:03:48.98    \nframe=  444 fps=1.9 q=58.0 size=       1KiB time=00:00:03.69 bitrate=   1.2kbits/s speed=0.0161x elapsed=0:03:49.55    \nframe=  449 fps=2.0 q=42.0 size=       1KiB time=00:00:03.73 bitrate=   1.2kbits/s speed=0.0162x elapsed=0:03:50.09    \nframe=  451 fps=2.0 q=57.0 size=       1KiB time=00:00:03.74 bitrate=   1.2kbits/s speed=0.0162x elapsed=0:03:50.66    \nframe=  453 fps=2.0 q=55.0 size=       1KiB time=00:00:03.75 bitrate=   1.2kbits/s speed=0.0163x elapsed=0:03:51.23    \nframe=  454 fps=2.0 q=56.0 size=       1KiB time=00:00:03.77 bitrate=   1.2kbits/s speed=0.0163x elapsed=0:03:51.80    \nframe=  455 fps=2.0 q=53.0 size=       1KiB time=00:00:03.78 bitrate=   1.2kbits/s speed=0.0163x elapsed=0:03:52.38    \nframe=  458 fps=2.0 q=58.0 size=       1KiB time=00:00:03.80 bitrate=   1.2kbits/s speed=0.0163x elapsed=0:03:52.95    \nframe=  460 fps=2.0 q=58.0 size=       1KiB time=00:00:03.82 bitrate=   1.2kbits/s speed=0.0164x elapsed=0:03:53.54    \nframe=  463 fps=2.0 q=55.0 size=       1KiB time=00:00:03.85 bitrate=   1.2kbits/s speed=0.0164x elapsed=0:03:54.13    \nframe=  467 fps=2.0 q=57.0 size=       1KiB time=00:00:03.87 bitrate=   1.2kbits/s speed=0.0165x elapsed=0:03:54.71    \nframe=  468 fps=2.0 q=58.0 size=       1KiB time=00:00:03.89 bitrate=   1.2kbits/s speed=0.0165x elapsed=0:03:55.28    \nframe=  470 fps=2.0 q=56.0 size=       1KiB time=00:00:03.90 bitrate=   1.1kbits/s speed=0.0166x elapsed=0:03:55.85    \nframe=  471 fps=2.0 q=52.0 size=       1KiB time=00:00:03.91 bitrate=   1.1kbits/s speed=0.0166x elapsed=0:03:56.41    \nframe=  474 fps=2.0 q=58.0 size=       1KiB time=00:00:03.94 bitrate=   1.1kbits/s speed=0.0166x elapsed=0:03:56.97    \nframe=  476 fps=2.0 q=58.0 size=       1KiB time=00:00:03.95 bitrate=   1.1kbits/s speed=0.0167x elapsed=0:03:57.55    \nframe=  479 fps=2.0 q=55.0 size=       1KiB time=00:00:03.98 bitrate=   1.1kbits/s speed=0.0167x elapsed=0:03:58.16    \nframe=  481 fps=2.0 q=40.0 size=       1KiB time=00:00:04.00 bitrate=   1.1kbits/s speed=0.0168x elapsed=0:03:58.76    \nframe=  483 fps=2.0 q=57.0 size=       1KiB time=00:00:04.01 bitrate=   1.1kbits/s speed=0.0168x elapsed=0:03:59.33    \nframe=  485 fps=2.0 q=55.0 size=       1KiB time=00:00:04.03 bitrate=   1.1kbits/s speed=0.0168x elapsed=0:03:59.92    \nframe=  486 fps=2.0 q=55.0 size=       1KiB time=00:00:04.04 bitrate=   1.1kbits/s speed=0.0168x elapsed=0:04:00.49    \nframe=  488 fps=2.0 q=55.0 size=       1KiB time=00:00:04.05 bitrate=   1.1kbits/s speed=0.0168x elapsed=0:04:01.08    \nframe=  491 fps=2.0 q=56.0 size=       1KiB time=00:00:04.08 bitrate=   1.1kbits/s speed=0.0169x elapsed=0:04:01.69    \nframe=  492 fps=2.0 q=58.0 size=       1KiB time=00:00:04.09 bitrate=   1.1kbits/s speed=0.0169x elapsed=0:04:02.28    \nframe=  495 fps=2.0 q=56.0 size=       1KiB time=00:00:04.11 bitrate=   1.1kbits/s speed=0.017x elapsed=0:04:02.86    \nframe=  496 fps=2.0 q=58.0 size=       1KiB time=00:00:04.12 bitrate=   1.1kbits/s speed=0.0169x elapsed=0:04:03.43    \nframe=  499 fps=2.0 q=57.0 size=       1KiB time=00:00:04.15 bitrate=   1.1kbits/s speed=0.017x elapsed=0:04:04.00    \nframe=  500 fps=2.0 q=58.0 size=       1KiB time=00:00:04.15 bitrate=   1.1kbits/s speed=0.017x elapsed=0:04:04.56    \nframe=  501 fps=2.0 q=55.0 size=       1KiB time=00:00:04.16 bitrate=   1.1kbits/s speed=0.017x elapsed=0:04:05.12    \nframe=  502 fps=2.0 q=55.0 size=       1KiB time=00:00:04.17 bitrate=   1.1kbits/s speed=0.017x elapsed=0:04:05.69    \nframe=  505 fps=2.1 q=50.0 size=       1KiB time=00:00:04.20 bitrate=   1.1kbits/s speed=0.0171x elapsed=0:04:06.24    \nframe=  507 fps=2.1 q=56.0 size=       1KiB time=00:00:04.21 bitrate=   1.1kbits/s speed=0.0171x elapsed=0:04:06.82    \nframe=  509 fps=2.1 q=52.0 size=       1KiB time=00:00:04.23 bitrate=   1.1kbits/s speed=0.0171x elapsed=0:04:07.40    \nframe=  511 fps=2.1 q=55.0 size=       1KiB time=00:00:04.25 bitrate=   1.1kbits/s speed=0.0171x elapsed=0:04:07.98    \nframe=  513 fps=2.1 q=41.0 size=       1KiB time=00:00:04.26 bitrate=   1.0kbits/s speed=0.0172x elapsed=0:04:08.55    \nframe=  515 fps=2.1 q=57.0 size=       1KiB time=00:00:04.28 bitrate=   1.0kbits/s speed=0.0172x elapsed=0:04:09.12    \nframe=  517 fps=2.1 q=55.0 size=       1KiB time=00:00:04.30 bitrate=   1.0kbits/s speed=0.0172x elapsed=0:04:09.68    \nframe=  521 fps=2.1 q=50.0 size=       1KiB time=00:00:04.33 bitrate=   1.0kbits/s speed=0.0173x elapsed=0:04:10.27    \nframe=  521 fps=2.1 q=50.0 size=       1KiB time=00:00:04.33 bitrate=   1.0kbits/s speed=0.0173x elapsed=0:04:10.86    \nframe=  521 fps=2.1 q=50.0 size=       1KiB time=00:00:04.33 bitrate=   1.0kbits/s speed=0.0172x elapsed=0:04:11.43    \nframe=  525 fps=2.1 q=53.0 size=       1KiB time=00:00:04.35 bitrate=   1.0kbits/s speed=0.0173x elapsed=0:04:12.02    \nframe=  529 fps=2.1 q=40.0 size=       1KiB time=00:00:04.38 bitrate=   1.0kbits/s speed=0.0174x elapsed=0:04:12.61    \nframe=  531 fps=2.1 q=57.0 size=       1KiB time=00:00:04.41 bitrate=   1.0kbits/s speed=0.0174x elapsed=0:04:13.17    \nframe=  533 fps=2.1 q=55.0 size=       1KiB time=00:00:04.43 bitrate=   1.0kbits/s speed=0.0175x elapsed=0:04:13.73    \nframe=  537 fps=2.1 q=50.0 size=       1KiB time=00:00:04.45 bitrate=   1.0kbits/s speed=0.0175x elapsed=0:04:14.29    \nframe=  537 fps=2.1 q=50.0 size=       1KiB time=00:00:04.46 bitrate=   1.0kbits/s speed=0.0175x elapsed=0:04:14.86    \nframe=  537 fps=2.1 q=50.0 size=       1KiB time=00:00:04.46 bitrate=   1.0kbits/s speed=0.0175x elapsed=0:04:15.42    \nframe=  539 fps=2.1 q=56.0 size=       1KiB time=00:00:04.48 bitrate=   1.0kbits/s speed=0.0175x elapsed=0:04:15.99    \nframe=  541 fps=2.1 q=53.0 size=       1KiB time=00:00:04.50 bitrate=   1.0kbits/s speed=0.0175x elapsed=0:04:16.56    \nframe=  541 fps=2.1 q=53.0 size=       1KiB time=00:00:04.50 bitrate=   1.0kbits/s speed=0.0175x elapsed=0:04:17.14    \nframe=  543 fps=2.1 q=55.0 size=       1KiB time=00:00:04.51 bitrate=   1.0kbits/s speed=0.0175x elapsed=0:04:17.72    \nframe=  545 fps=2.1 q=41.0 size=       1KiB time=00:00:04.53 bitrate=   1.0kbits/s speed=0.0176x elapsed=0:04:18.27    \nframe=  549 fps=2.1 q=55.0 size=       1KiB time=00:00:04.56 bitrate=   1.0kbits/s speed=0.0176x elapsed=0:04:18.82    \nframe=  551 fps=2.1 q=52.0 size=       1KiB time=00:00:04.56 bitrate=   1.0kbits/s speed=0.0176x elapsed=0:04:19.37    \nframe=  553 fps=2.1 q=50.0 size=       1KiB time=00:00:04.60 bitrate=   1.0kbits/s speed=0.0177x elapsed=0:04:19.92    \nframe=  553 fps=2.1 q=50.0 size=       1KiB time=00:00:04.60 bitrate=   1.0kbits/s speed=0.0177x elapsed=0:04:20.50    \nframe=  557 fps=2.1 q=53.0 size=       1KiB time=00:00:04.63 bitrate=   1.0kbits/s speed=0.0177x elapsed=0:04:21.06    \nframe=  561 fps=2.1 q=40.0 size=       1KiB time=00:00:04.66 bitrate=   1.0kbits/s speed=0.0178x elapsed=0:04:21.59    \nframe=  563 fps=2.1 q=57.0 size=       1KiB time=00:00:04.68 bitrate=   1.0kbits/s speed=0.0179x elapsed=0:04:22.14    \nframe=  565 fps=2.2 q=55.0 size=       1KiB time=00:00:04.70 bitrate=   1.0kbits/s speed=0.0179x elapsed=0:04:22.69    \nframe=  569 fps=2.2 q=50.0 size=       1KiB time=00:00:04.73 bitrate=   0.9kbits/s speed=0.018x elapsed=0:04:23.24    \nframe=  569 fps=2.2 q=50.0 size=       1KiB time=00:00:04.73 bitrate=   0.9kbits/s speed=0.0179x elapsed=0:04:23.81    \nframe=  569 fps=2.2 q=50.0 size=       1KiB time=00:00:04.73 bitrate=   0.9kbits/s speed=0.0179x elapsed=0:04:24.37    \nframe=  571 fps=2.2 q=56.0 size=       1KiB time=00:00:04.75 bitrate=   0.9kbits/s speed=0.0179x elapsed=0:04:24.95    \nframe=  573 fps=2.2 q=52.0 size=       1KiB time=00:00:04.76 bitrate=   0.9kbits/s speed=0.018x elapsed=0:04:25.52    \nframe=  573 fps=2.2 q=52.0 size=       1KiB time=00:00:04.76 bitrate=   0.9kbits/s speed=0.0179x elapsed=0:04:26.07    \nframe=  577 fps=2.2 q=40.0 size=       1KiB time=00:00:04.80 bitrate=   0.9kbits/s speed=0.018x elapsed=0:04:26.62    \nframe=  579 fps=2.2 q=58.0 size=       1KiB time=00:00:04.81 bitrate=   0.9kbits/s speed=0.018x elapsed=0:04:27.17    \nframe=  581 fps=2.2 q=56.0 size=       1KiB time=00:00:04.83 bitrate=   0.9kbits/s speed=0.0181x elapsed=0:04:27.73    \nframe=  585 fps=2.2 q=50.0 size=       1KiB time=00:00:04.86 bitrate=   0.9kbits/s speed=0.0181x elapsed=0:04:28.28    \nframe=  585 fps=2.2 q=50.0 size=       1KiB time=00:00:04.86 bitrate=   0.9kbits/s speed=0.0181x elapsed=0:04:28.83    \nframe=  589 fps=2.2 q=59.0 size=       1KiB time=00:00:04.90 bitrate=   0.9kbits/s speed=0.0182x elapsed=0:04:29.39    \nframe=  591 fps=2.2 q=59.0 size=       1KiB time=00:00:04.91 bitrate=   0.9kbits/s speed=0.0182x elapsed=0:04:29.95    \n[out#0/matroska @ 000002c7969d90c0] video:822KiB audio:0KiB subtitle:0KiB other streams:0KiB global headers:0KiB muxing overhead: 0.394115%\nframe=  600 fps=2.2 q=59.0 Lsize=     825KiB time=00:00:04.99 bitrate=1354.6kbits/s speed=0.0185x elapsed=0:04:30.02    \n",
  "seconds": 271.5624620914459,
  "probe_out": {}
}